<svg xmlns="http://www.w3.org/2000/svg" viewBox="0 0 800 520" font-family="Inter, system-ui, sans-serif">
  <defs>
    <linearGradient id="engineGrad" x1="0" y1="0" x2="0" y2="1">
      <stop offset="0%" stop-color="#2a2318"/>
      <stop offset="100%" stop-color="#1f1a12"/>
    </linearGradient>
    <linearGradient id="subprocGrad" x1="0" y1="0" x2="0" y2="1">
      <stop offset="0%" stop-color="#1a1520"/>
      <stop offset="100%" stop-color="#14111a"/>
    </linearGradient>
  </defs>

  <!-- Background -->
  <rect width="800" height="520" rx="12" fill="#141210"/>

  <!-- Engine Process -->
  <rect x="30" y="20" width="740" height="220" rx="10" fill="url(#engineGrad)" stroke="#d4952e" stroke-width="1.5"/>
  <text x="50" y="50" fill="#d4952e" font-size="14" font-weight="700" letter-spacing="1.5">ENGINE PROCESS</text>
  <text x="250" y="50" fill="#8a7a60" font-size="11" font-weight="500">TRUSTED</text>

  <!-- Engine boxes -->
  <rect x="50" y="70" width="150" height="60" rx="6" fill="#2a2318" stroke="#c0892a" stroke-width="1"/>
  <text x="125" y="96" fill="#e8c564" font-size="12" font-weight="600" text-anchor="middle">API Keys</text>
  <text x="125" y="114" fill="#8a7a60" font-size="10" text-anchor="middle">Real credentials</text>

  <rect x="220" y="70" width="150" height="60" rx="6" fill="#2a2318" stroke="#c0892a" stroke-width="1"/>
  <text x="295" y="96" fill="#e8c564" font-size="12" font-weight="600" text-anchor="middle">Interceptor Chain</text>
  <text x="295" y="114" fill="#8a7a60" font-size="10" text-anchor="middle">Budget + Observer</text>

  <rect x="390" y="70" width="150" height="60" rx="6" fill="#2a2318" stroke="#c0892a" stroke-width="1"/>
  <text x="465" y="96" fill="#e8c564" font-size="12" font-weight="600" text-anchor="middle">IPC Server</text>
  <text x="465" y="114" fill="#8a7a60" font-size="10" text-anchor="middle">Unix socket</text>

  <rect x="560" y="70" width="190" height="60" rx="6" fill="#2a2318" stroke="#c0892a" stroke-width="1"/>
  <text x="655" y="96" fill="#e8c564" font-size="12" font-weight="600" text-anchor="middle">LLM Handlers</text>
  <text x="655" y="114" fill="#8a7a60" font-size="10" text-anchor="middle">Tool, HTTP, File I/O</text>

  <!-- Engine flow arrows -->
  <line x1="465" y1="130" x2="465" y2="155" stroke="#c0892a" stroke-width="1.5" marker-end="url(#arrowGold)"/>
  <text x="400" y="170" fill="#8a7a60" font-size="10">Proxied LLM calls</text>

  <rect x="50" y="155" width="310" height="65" rx="6" fill="#2a2318" stroke="#6b5c3e" stroke-width="0.8" stroke-dasharray="4,3"/>
  <text x="205" y="180" fill="#c0892a" font-size="11" font-weight="600" text-anchor="middle">LLM Provider (OpenAI, Anthropic, ...)</text>
  <text x="205" y="198" fill="#8a7a60" font-size="10" text-anchor="middle">Called by engine with real API key</text>

  <!-- IPC Channel divider -->
  <line x1="30" y1="270" x2="770" y2="270" stroke="#d4952e" stroke-width="2" stroke-dasharray="8,4"/>
  <rect x="340" y="257" width="120" height="26" rx="13" fill="#d4952e"/>
  <text x="400" y="275" fill="#141210" font-size="11" font-weight="700" text-anchor="middle">Unix Socket IPC</text>

  <!-- Subprocess -->
  <rect x="30" y="300" width="740" height="200" rx="10" fill="url(#subprocGrad)" stroke="#6b4c8a" stroke-width="1.5"/>
  <text x="50" y="330" fill="#a07cc8" font-size="14" font-weight="700" letter-spacing="1.5">SUBPROCESS</text>
  <text x="230" y="330" fill="#6b5080" font-size="11" font-weight="500">UNTRUSTED</text>

  <!-- Subprocess boxes -->
  <rect x="50" y="350" width="170" height="60" rx="6" fill="#1f1a28" stroke="#7b5ca0" stroke-width="1"/>
  <text x="135" y="376" fill="#c0a0e0" font-size="12" font-weight="600" text-anchor="middle">Proxied LLM Client</text>
  <text x="135" y="394" fill="#6b5080" font-size="10" text-anchor="middle">No real API key</text>

  <rect x="240" y="350" width="170" height="60" rx="6" fill="#1f1a28" stroke="#7b5ca0" stroke-width="1"/>
  <text x="325" y="376" fill="#c0a0e0" font-size="12" font-weight="600" text-anchor="middle">Tool Stubs</text>
  <text x="325" y="394" fill="#6b5080" font-size="10" text-anchor="middle">IPC-backed</text>

  <rect x="430" y="350" width="170" height="60" rx="6" fill="#1f1a28" stroke="#7b5ca0" stroke-width="1"/>
  <text x="515" y="376" fill="#c0a0e0" font-size="12" font-weight="600" text-anchor="middle">Block Logic</text>
  <text x="515" y="394" fill="#6b5080" font-size="10" text-anchor="middle">linear, gate, dispatch...</text>

  <!-- No access labels -->
  <rect x="50" y="430" width="550" height="50" rx="6" fill="#1a1118" stroke="#4a3060" stroke-width="0.8"/>
  <text x="70" y="450" fill="#6b5080" font-size="11">No API keys</text>
  <text x="70" y="468" fill="#4a3060" font-size="10">OPENAI_API_KEY, ANTHROPIC_API_KEY — never present</text>
  <text x="320" y="450" fill="#6b5080" font-size="11">No engine state</text>
  <text x="320" y="468" fill="#4a3060" font-size="10">No database, no shared memory, no credentials</text>

  <!-- Arrow markers -->
  <defs>
    <marker id="arrowGold" markerWidth="8" markerHeight="6" refX="8" refY="3" orient="auto">
      <path d="M0,0 L8,3 L0,6" fill="#c0892a"/>
    </marker>
  </defs>
</svg>
